<?xml version="1.0" encoding="UTF-8"?>
<svg id="Layer_2" data-name="Layer 2" xmlns="http://www.w3.org/2000/svg" width="512" height="512" viewBox="0 0 512 512">
  <defs>
    <style>
      .cls-1 {
        fill: #000;
        stroke-width: 0px;
      }
    </style>
  </defs>
  <g id="cvIcon">
    <path class="cls-1" d="M405.32,0H106.68C47.76,0,0,47.76,0,106.68v298.64c0,58.92,47.76,106.68,106.68,106.68h298.64c58.92,0,106.68-47.76,106.68-106.68V106.68c0-58.92-47.76-106.68-106.68-106.68ZM164.59,317.64c17.3,0,22.02-8.18,23.9-22.64.94-6.6,5.98-10.69,12.27-9.12l35.54,7.86c4.4.94,7.23,4.4,6.92,9.12-1.26,23.9-11.64,68.88-78.63,68.88-74.54,0-78.94-55.67-78.94-76.43v-78.63c0-20.76,4.4-76.43,78.94-76.43,66.99,0,77.37,44.97,78.63,69.19.31,4.4-2.52,7.86-6.92,8.81l-34.91,7.86c-6.6,1.26-11.64-3.15-12.58-9.75-1.57-13.84-7.23-22.02-24.22-22.02-23.27,0-24.85,14.78-24.85,39v45.29c0,24.22,1.57,39,24.85,39ZM425.95,156.3l-45.92,201.6c-1.26,5.35-4.72,8.18-10.38,8.18h-58.5c-5.66,0-9.12-2.83-10.38-8.18l-45.92-201.6c-1.57-6.6,1.57-10.38,8.18-10.38h37.43c5.66,0,9.12,2.83,10.38,8.18l27.68,120.77c.63,2.83,3.15,2.83,3.77,0l27.68-120.77c1.26-5.35,4.72-8.18,10.38-8.18h37.43c6.6,0,9.75,3.77,8.18,10.38Z"/>
  </g>
</svg>