<?xml version="1.0" encoding="UTF-8"?>
<svg id="Layer_2" data-name="Layer 2" xmlns="http://www.w3.org/2000/svg" width="512" height="512" viewBox="0 0 512 512">
  <defs>
    <style>
      .cls-1 {
        fill: #000;
        stroke-width: 0px;
      }
    </style>
  </defs>
  <g id="emailIcon">
    <g>
      <path class="cls-1" d="M382.11,157.48h-252.22c-10.86,0-19.7,8.84-19.7,19.7v157.63c0,10.87,8.84,19.71,19.7,19.71h252.22c10.86,0,19.7-8.84,19.7-19.71v-157.63c0-10.86-8.84-19.7-19.7-19.7ZM341.6,218.4l-78.82,55.17c-2.04,1.42-4.41,2.14-6.78,2.14s-4.74-.71-6.78-2.14l-78.82-55.17c-5.35-3.74-6.65-11.12-2.91-16.47,3.74-5.35,11.12-6.65,16.47-2.91l72.04,50.43,72.04-50.43c5.35-3.74,12.72-2.44,16.47,2.91,3.74,5.35,2.44,12.72-2.91,16.47Z"/>
      <path class="cls-1" d="M405.32,0H106.68C47.76,0,0,47.76,0,106.68v298.64c0,58.92,47.76,106.68,106.68,106.68h298.64c58.92,0,106.68-47.76,106.68-106.68V106.68c0-58.92-47.76-106.68-106.68-106.68ZM425.46,334.82c0,23.9-19.45,43.35-43.35,43.35h-252.22c-23.9,0-43.35-19.45-43.35-43.35v-157.63c0-23.9,19.45-43.35,43.35-43.35h252.22c23.9,0,43.35,19.45,43.35,43.35v157.63Z"/>
    </g>
  </g>
</svg>